<?xml version="1.0" encoding="UTF-8"?>
<svg width="50mm" height="50mm" version="1.1" viewBox="0 0 50 50" xmlns="http://www.w3.org/2000/svg">
 <g>
  <path d="m8.4736 17.884c0-2.8956 0.73069-5.5096 2.1921-7.8421 1.4614-2.3728 3.4386-4.2428 5.9315-5.6102 2.5359-1.3673 5.3298-2.051 8.3815-2.051 2.5789 0 4.8999 0.46249 6.9631 1.3875 2.1061 0.88476 3.8899 2.1516 5.3512 3.8004l-4.771 4.5243c-1.9342-2.2923-4.4486-3.4385-7.5433-3.4385-1.6763 0-3.2451 0.40216-4.7065 1.2065-1.4184 0.76411-2.5789 1.8499-3.4815 3.2575-0.85964 1.3674-1.2895 2.9559-1.2895 4.7656s0.42982 3.4184 1.2895 4.8259c0.90262 1.3673 2.0631 2.4532 3.4815 3.2575 1.4614 0.76411 3.0302 1.1462 4.7065 1.1462 3.0947 0 5.6091-1.1462 7.5433-3.4385l4.771 4.5243c-1.4614 1.6489-3.2451 2.9358-5.3513 3.8608-2.0631 0.88475-4.3842 1.3271-6.9631 1.3271-3.0517 0-5.8455-0.68368-8.3815-2.051-2.493-1.3674-4.4701-3.2173-5.9315-5.5498-1.4614-2.3728-2.1921-5.0069-2.1921-7.9025z" fill="#0a0d12"/>
  <path d="m2.5 47.5c0.00231-3.8247 4.1146-11.781 10.729-15.75 6.6146 5.2917 17.198 5.2917 23.542 0 1.5342 1.1506 3.0806 2.6243 4.5033 4.2338-4.7615 1.587-7.1427 6.6141-3.8676 11.516z" fill="#588dbd"/>
  <circle cx="42.862" cy="42.862" r="4.6302" fill="#588dbd" stroke-linecap="square" stroke-linejoin="round" stroke-width=".46302" style="paint-order:stroke fill markers"/>
 </g>
</svg>
